<svg xmlns="http://www.w3.org/2000/svg" viewBox="0 0 211 88" width="422" height="176" role="img" aria-label="twill">
<title>twill</title>
<style>.word{fill:#0c4a6e}@media (prefers-color-scheme:dark){.word{fill:#e0f2fe}}</style>
<g transform="translate(-6 -6)"><clipPath id="twill-hb"><rect x="6" y="6" width="88" height="88" rx="20"/></clipPath><g clip-path="url(#twill-hb)"><rect x="0" y="0" width="100" height="100" fill="#e0f2fe"/><clipPath id="twill-hc0"><rect x="7.5" y="0" width="19" height="100"/></clipPath><g clip-path="url(#twill-hc0)" stroke="#0284c7" stroke-width="6"><line x1="6" y1="-40" x2="28" y2="-62"/><line x1="6" y1="-27" x2="28" y2="-49"/><line x1="6" y1="-14" x2="28" y2="-36"/><line x1="6" y1="-1" x2="28" y2="-23"/><line x1="6" y1="12" x2="28" y2="-10"/><line x1="6" y1="25" x2="28" y2="3"/><line x1="6" y1="38" x2="28" y2="16"/><line x1="6" y1="51" x2="28" y2="29"/><line x1="6" y1="64" x2="28" y2="42"/><line x1="6" y1="77" x2="28" y2="55"/><line x1="6" y1="90" x2="28" y2="68"/><line x1="6" y1="103" x2="28" y2="81"/><line x1="6" y1="116" x2="28" y2="94"/><line x1="6" y1="129" x2="28" y2="107"/><line x1="6" y1="142" x2="28" y2="120"/></g><clipPath id="twill-hc1"><rect x="29.5" y="0" width="19" height="100"/></clipPath><g clip-path="url(#twill-hc1)" stroke="#0284c7" stroke-width="6"><line x1="28" y1="-62" x2="50" y2="-40"/><line x1="28" y1="-49" x2="50" y2="-27"/><line x1="28" y1="-36" x2="50" y2="-14"/><line x1="28" y1="-23" x2="50" y2="-1"/><line x1="28" y1="-10" x2="50" y2="12"/><line x1="28" y1="3" x2="50" y2="25"/><line x1="28" y1="16" x2="50" y2="38"/><line x1="28" y1="29" x2="50" y2="51"/><line x1="28" y1="42" x2="50" y2="64"/><line x1="28" y1="55" x2="50" y2="77"/><line x1="28" y1="68" x2="50" y2="90"/><line x1="28" y1="81" x2="50" y2="103"/><line x1="28" y1="94" x2="50" y2="116"/><line x1="28" y1="107" x2="50" y2="129"/><line x1="28" y1="120" x2="50" y2="142"/></g><clipPath id="twill-hc2"><rect x="51.5" y="0" width="19" height="100"/></clipPath><g clip-path="url(#twill-hc2)" stroke="#0284c7" stroke-width="6"><line x1="50" y1="-40" x2="72" y2="-62"/><line x1="50" y1="-27" x2="72" y2="-49"/><line x1="50" y1="-14" x2="72" y2="-36"/><line x1="50" y1="-1" x2="72" y2="-23"/><line x1="50" y1="12" x2="72" y2="-10"/><line x1="50" y1="25" x2="72" y2="3"/><line x1="50" y1="38" x2="72" y2="16"/><line x1="50" y1="51" x2="72" y2="29"/><line x1="50" y1="64" x2="72" y2="42"/><line x1="50" y1="77" x2="72" y2="55"/><line x1="50" y1="90" x2="72" y2="68"/><line x1="50" y1="103" x2="72" y2="81"/><line x1="50" y1="116" x2="72" y2="94"/><line x1="50" y1="129" x2="72" y2="107"/><line x1="50" y1="142" x2="72" y2="120"/></g><clipPath id="twill-hc3"><rect x="73.5" y="0" width="19" height="100"/></clipPath><g clip-path="url(#twill-hc3)" stroke="#0284c7" stroke-width="6"><line x1="72" y1="-62" x2="94" y2="-40"/><line x1="72" y1="-49" x2="94" y2="-27"/><line x1="72" y1="-36" x2="94" y2="-14"/><line x1="72" y1="-23" x2="94" y2="-1"/><line x1="72" y1="-10" x2="94" y2="12"/><line x1="72" y1="3" x2="94" y2="25"/><line x1="72" y1="16" x2="94" y2="38"/><line x1="72" y1="29" x2="94" y2="51"/><line x1="72" y1="42" x2="94" y2="64"/><line x1="72" y1="55" x2="94" y2="77"/><line x1="72" y1="68" x2="94" y2="90"/><line x1="72" y1="81" x2="94" y2="103"/><line x1="72" y1="94" x2="94" y2="116"/><line x1="72" y1="107" x2="94" y2="129"/><line x1="72" y1="120" x2="94" y2="142"/></g></g></g>
<path class="word" transform="matrix(0.022949 0 0 -0.022949 107.380 61.854)" d="M563 1438V1120H932V864H563V389Q563 311 594.0 283.5Q625 256 717 256H901V0H594Q382 0 293.5 88.5Q205 177 205 389V864H27V1120H205V1438ZM969.08 1120H1317.08L1505.08 348L1694.08 1120H1993.08L2181.08 356L2370.08 1120H2718.08L2423.08 0H2032.08L1843.08 770L1655.08 0H1264.08ZM2879.16 1120H3237.16V0H2879.16ZM2879.16 1556H3237.16V1264H2879.16ZM3499.24 1556H3857.24V0H3499.24ZM4119.32 1556H4477.32V0H4119.32Z"/>
</svg>
